<svg width="16" height="16" viewBox="0 0 16 16" fill="none" xmlns="http://www.w3.org/2000/svg">
<path d="M4.71511 6.542L3.34311 7.914C2.78045 8.47666 2.46436 9.23978 2.46436 10.0355C2.46436 10.8312 2.78045 11.5943 3.34311 12.157C3.90577 12.7197 4.66889 13.0358 5.46461 13.0358C6.26033 13.0358 7.02345 12.7197 7.58611 12.157L9.41411 10.328C9.7534 9.98866 10.0063 9.57287 10.1517 9.11555C10.2971 8.65822 10.3306 8.1727 10.2495 7.69974C10.1684 7.22677 9.97497 6.78016 9.68554 6.3974C9.39611 6.01464 9.01909 5.7069 8.58611 5.5L8.00011 6.086C7.94062 6.1456 7.88888 6.21246 7.84611 6.285C8.18064 6.38117 8.48427 6.56298 8.727 6.81246C8.96973 7.06194 9.14315 7.37044 9.23011 7.70748C9.31707 8.04452 9.31457 8.39842 9.22284 8.73419C9.13112 9.06996 8.95335 9.37598 8.70711 9.622L6.88011 11.45C6.50483 11.8253 5.99584 12.0361 5.46511 12.0361C4.93438 12.0361 4.42539 11.8253 4.05011 11.45C3.67483 11.0747 3.464 10.5657 3.464 10.035C3.464 9.50427 3.67483 8.99528 4.05011 8.62L4.84311 7.828C4.73122 7.40873 4.688 6.9751 4.71511 6.542Z" fill="black"/>
<path d="M6.58605 4.67202C6.24675 5.01137 5.99381 5.42715 5.84846 5.88448C5.7031 6.3418 5.66957 6.82733 5.75069 7.30029C5.8318 7.77325 6.02519 8.21986 6.31462 8.60262C6.60405 8.98538 6.98107 9.29313 7.41405 9.50002L8.18905 8.72402C7.85 8.63308 7.54085 8.4545 7.29268 8.20623C7.04451 7.95795 6.86606 7.64874 6.77526 7.30965C6.68446 6.97056 6.6845 6.61354 6.77539 6.27447C6.86628 5.93541 7.04482 5.62623 7.29305 5.37802L9.12005 3.55002C9.49533 3.17474 10.0043 2.96391 10.535 2.96391C11.0658 2.96391 11.5748 3.17474 11.95 3.55002C12.3253 3.92531 12.5362 4.4343 12.5362 4.96503C12.5362 5.49575 12.3253 6.00474 11.95 6.38002L11.157 7.17202C11.269 7.59202 11.312 8.02702 11.285 8.45902L12.657 7.08702C13.2197 6.52437 13.5358 5.76124 13.5358 4.96552C13.5358 4.16981 13.2197 3.40668 12.657 2.84403C12.0944 2.28137 11.3313 1.96527 10.5355 1.96527C9.73983 1.96527 8.9767 2.28137 8.41405 2.84403L6.58605 4.67202Z" fill="black"/>
</svg>
